#!OML:ASF F:\VICON\USERDATA\INSTALL\rory3\rory3.ASF
:FULLY-SPECIFIED
:DEGREES
28
root -0.2903946376711074 17.699533832117886 0.6056307996218884 4.394757552431065 1.5492304035151716 -0.19285469469433858
lfemur 2.2233055180636843 0.7596704663398561 -25.094054432524825
ltibia 41.00996248658592
lfoot -8.770586768667219 -1.5922284122086738
ltoes -26.252203743111163
rfemur -46.87156066979844 -2.8960582029150426 23.56595065472697
rtibia 95.03595789027793
rfoot 0.10541268488515954 -4.623782918409123
rtoes 3.1675787332818803
lowerback 16.234816035644428 -0.3700620445978182 -3.1216898038638305
upperback -0.9514267404108475 -0.9497298172076523 1.3598617532911914
thorax -10.173450706827726 -0.22908723760976435 4.243989925233921
lowerneck -21.99905358636929 -2.7521610806183805 -1.3440183398433905
upperneck 13.098926622555629 -3.9402595872620556 3.1095222630018817
head 7.664582838868301 -1.5906670210256895 0.80322267125559
lclavicle -1.6063365423587428e-15 1.8724791778442287e-15
lhumerus -33.699126094452126 -19.11563347765916 97.41573880202837
lradius 119.55852126330758
lwrist 37.0961901716196
lhand -24.634496848742465 1.8420327362911415
lfingers 7.12502
lthumb 1.8644626760598328 31.798618507612442
rclavicle -1.6063365423587428e-15 1.8724791778442287e-15
rhumerus -60.44106285771939 7.628062889487187 -99.98661572199279
rradius 107.09609070252317
rwrist -13.221765391890427
rhand -15.358308302103426 39.477629845755224
rfingers 7.12502
rthumb 10.818948321977725 9.579262000019462
29
root -0.26163822528121644 17.90777549257483 1.31770798709924 4.625250548191103 0.5575547753026711 -0.4986201966807693
lfemur 6.636565871207667 1.0085727055449576 -24.948426234422385
ltibia 36.96602959757047
lfoot -1.1623341533853528 -4.636340695225039
ltoes -27.47251921220387
rfemur -48.0287054031489 -1.4527001975828902 24.234254608625882
rtibia 85.39193179787145
rfoot -0.274321744173319 -3.6789033597923932
rtoes -0.8091765524401313
lowerback 15.771841223861422 -0.6031524383042453 -2.982140640144965
upperback -1.202978400738802 -1.1916666354314902 1.7480374650189212
thorax -10.086655628355052 -0.3382789538996366 4.581292119308583
lowerneck -22.107428082681242 -2.4664348100657913 -1.4258225586553728
upperneck 13.423678368507225 -3.488854047040901 2.8201741133594074
head 7.74597947530758 -1.402788263071648 0.7393037618143811
lclavicle -1.738557210114154e-15 1.7765751855525535e-15
lhumerus -33.531370305273754 -18.875921963377667 96.66453913700673
lradius 121.64699264050793
lwrist 37.4087455084346
lhand -24.37989329527176 2.1637028780503664
lfingers 7.12502
lthumb 2.11033263866154 32.11364283303326
rclavicle -1.738557210114154e-15 1.7765751855525535e-15
rhumerus -62.08929559870752 7.2111980783924 -99.42004784596423
rradius 108.0965168331341
rwrist -13.16991812862232
rhand -15.396596271449267 39.48364590107373
rfingers 7.12502
rthumb 10.781937891307953 9.595177959097384
30
root -0.24460369948986357 18.096048796792587 2.6499605602110083 4.953598897461134 -0.5199448043468647 -0.8574723028625644
lfemur 10.371548826091049 0.41234736561720226 -24.771025437657777
ltibia 33.30495703944912
lfoot 6.838053598173208 -7.736797234435014
ltoes -27.3780734154587
rfemur -47.6558599495439 0.21603424220647227 24.94070653642972
rtibia 74.6272335555648
rfoot -0.6886669961019729 -2.047789970984362
rtoes -5.514392373394388
lowerback 15.474280196973286 -0.7680825133584024 -2.5440375101249035
upperback -1.4618713198672777 -1.3009415627087275 2.1263655468741134
thorax -10.054904273576714 -0.3993079608424387 4.697833470039202
lowerneck -22.064914031270867 -2.181667522009924 -1.516300259300724
upperneck 13.685259357647105 -3.0321004612127975 2.593882700179895
head 7.798263974956225 -1.2141638977952347 0.6997625217357387
lclavicle -1.7042817484423902e-15 1.80143630682181e-15
lhumerus -33.59314313128089 -18.85851482607975 96.0219161847344
lradius 123.69464515924085
lwrist 37.547183620976824
lhand -24.025758327133563 1.955923526227076
lfingers 7.12502
lthumb 2.452330255779524 31.90129498044699
rclavicle -1.7042817484423902e-15 1.80143630682181e-15
rhumerus -63.71773205841856 6.740487116396564 -98.64210588043416
rradius 109.27320866544466
rwrist -12.722289313689267
rhand -15.542351695756885 39.54220162797478
rfingers 7.12502
rthumb 10.641191484329527 9.56405706703555
31
root -0.20366918444990104 18.30922359396071 3.7380303574925566 5.243164232274071 -1.29842823096569 -1.140605861666085
lfemur 12.198345445968277 -0.6615721398024228 -25.172784848186254
ltibia 29.743946468680306
lfoot 13.740834413756728 -10.73788798908396
ltoes -25.85208822565827
rfemur -47.664902514078975 0.8385442548203699 25.278116787490443
rtibia 62.30469132354573
rfoot -0.2683981300853313 -0.6581139273936492
rtoes -9.739453552063743
lowerback 14.949677779351818 -1.0225047730882246 -2.32968766708563
upperback -1.8327733383818843 -1.5778573893776868 2.336406242364783
thorax -10.040338429163361 -0.53051660488418 4.611237319161889
lowerneck -22.030115329161443 -2.116378877256624 -1.6947712334569989
upperneck 13.963714859437221 -2.8617895930851054 2.354748717938933
head 7.865034776077814 -1.1644978140182962 0.6492102800305246
lclavicle -2.740360747680853e-15 1.0499341748804108e-15
lhumerus -34.92793719592374 -19.44879823229501 95.48581716764072
lradius 124.28511751351257
lwrist 36.72169815394299
lhand -23.969596222194642 1.8599775339040068
lfingers 7.12502
lthumb 2.506579055563949 31.805259978292668
rclavicle -2.740360747680853e-15 1.0499341748804108e-15
rhumerus -65.46390876397298 5.54549422353915 -97.66851082152043
rradius 109.99708247290349
rwrist -12.297182479332214
rhand -15.670804882526147 39.76218974953449
rfingers 7.12502
rthumb 10.517111885755746 9.777285676164386
